<svg width="32" height="25" viewBox="0 0 32 25" fill="none" xmlns="http://www.w3.org/2000/svg">
<path d="M26.9122 2.55105C24.9061 1.61586 22.7341 0.937097 20.4715 0.544922C20.4317 0.545489 20.3938 0.561753 20.3659 0.590173C20.0944 1.08793 19.7777 1.73653 19.5665 2.23429C17.1667 1.87251 14.7262 1.87251 12.3263 2.23429C12.1152 1.72145 11.7984 1.08793 11.5118 0.590173C11.4967 0.560006 11.4515 0.544922 11.4062 0.544922C9.14368 0.937097 6.98671 1.61586 4.9655 2.55105C4.95042 2.55105 4.93533 2.56613 4.92025 2.58122C0.817492 8.72027 -0.313784 14.6934 0.244312 20.6062C0.244312 20.6364 0.259396 20.6665 0.289563 20.6816C3.00462 22.6727 5.6141 23.8794 8.19341 24.6788C8.23866 24.6939 8.28391 24.6788 8.29899 24.6486C8.90234 23.819 9.44535 22.9442 9.91294 22.0241C9.94311 21.9637 9.91294 21.9034 9.85261 21.8883C8.99284 21.5565 8.17832 21.1643 7.37889 20.7118C7.31855 20.6816 7.31855 20.5911 7.3638 20.5459C7.52972 20.4252 7.69564 20.2894 7.86156 20.1688C7.89173 20.1386 7.93698 20.1386 7.96715 20.1537C13.1559 22.5218 18.752 22.5218 23.8804 20.1537C23.9106 20.1386 23.9558 20.1386 23.986 20.1688C24.1519 20.3045 24.3178 20.4252 24.4838 20.561C24.5441 20.6062 24.5441 20.6967 24.4687 20.7269C23.6843 21.1945 22.8547 21.5716 21.995 21.9034C21.9346 21.9185 21.9195 21.9939 21.9346 22.0392C22.4173 22.9593 22.9603 23.8341 23.5486 24.6637C23.5938 24.6788 23.6391 24.6939 23.6843 24.6788C26.2787 23.8794 28.8882 22.6727 31.6033 20.6816C31.6334 20.6665 31.6485 20.6364 31.6485 20.6062C32.3122 13.7733 30.5474 7.84542 26.9726 2.58122C26.9575 2.56613 26.9424 2.55105 26.9122 2.55105ZM10.6973 17.0012C9.14368 17.0012 7.84648 15.5683 7.84648 13.8035C7.84648 12.0387 9.11351 10.6057 10.6973 10.6057C12.2962 10.6057 13.5632 12.0538 13.5481 13.8035C13.5481 15.5683 12.2811 17.0012 10.6973 17.0012ZM21.2106 17.0012C19.657 17.0012 18.3598 15.5683 18.3598 13.8035C18.3598 12.0387 19.6268 10.6057 21.2106 10.6057C22.8095 10.6057 24.0765 12.0538 24.0614 13.8035C24.0614 15.5683 22.8095 17.0012 21.2106 17.0012Z" fill="white"/>
</svg>
