<svg width="8" height="10" viewBox="0 0 8 10" fill="none" xmlns="http://www.w3.org/2000/svg">
<path d="M2.53412 5.70447C2.83622 5.70447 3.12594 5.58447 3.33955 5.37085C3.55317 5.15724 3.67317 4.86752 3.67317 4.56542C3.67317 3.93667 3.44536 3.65418 3.21755 3.19856C2.72913 2.22217 3.11549 1.35148 4.12879 0.464844C4.3566 1.60389 5.04003 2.69738 5.95127 3.42637C6.86251 4.15537 7.31813 5.02104 7.31813 5.93228C7.31813 6.35111 7.23564 6.76584 7.07536 7.15279C6.91508 7.53974 6.68016 7.89133 6.384 8.18749C6.08784 8.48365 5.73625 8.71857 5.3493 8.87885C4.96235 9.03913 4.54762 9.12162 4.12879 9.12162C3.70996 9.12162 3.29523 9.03913 2.90829 8.87885C2.52134 8.71857 2.16975 8.48365 1.87359 8.18749C1.57743 7.89133 1.34251 7.53974 1.18223 7.15279C1.02195 6.76584 0.939453 6.35111 0.939453 5.93228C0.939453 5.40695 1.13674 4.88709 1.39507 4.56542C1.39507 4.86752 1.51508 5.15724 1.72869 5.37085C1.94231 5.58447 2.23203 5.70447 2.53412 5.70447Z" fill="url(#paint0_linear_1124_476)" stroke="url(#paint1_linear_1124_476)" stroke-width="0.91124" stroke-linecap="round" stroke-linejoin="round"/>
<defs>
<linearGradient id="paint0_linear_1124_476" x1="4.12879" y1="0.464844" x2="4.12879" y2="9.12162" gradientUnits="userSpaceOnUse">
<stop stop-color="#D4B100"/>
<stop offset="1" stop-color="#B50000"/>
</linearGradient>
<linearGradient id="paint1_linear_1124_476" x1="4.12879" y1="0.464844" x2="4.12879" y2="9.12162" gradientUnits="userSpaceOnUse">
<stop stop-color="#D4B100"/>
<stop offset="1" stop-color="#B50000"/>
</linearGradient>
</defs>
</svg>
