<svg width="8" height="10" viewBox="0 0 8 10" fill="none" xmlns="http://www.w3.org/2000/svg">
<path d="M2.51655 5.70447C2.81864 5.70447 3.10836 5.58447 3.32198 5.37085C3.53559 5.15724 3.6556 4.86752 3.6556 4.56542C3.6556 3.93667 3.42779 3.65418 3.19998 3.19856C2.71155 2.22217 3.09792 1.35148 4.11122 0.464844C4.33903 1.60389 5.02246 2.69738 5.9337 3.42637C6.84494 4.15537 7.30056 5.02104 7.30056 5.93228C7.30056 6.35111 7.21806 6.76584 7.05778 7.15279C6.8975 7.53974 6.66258 7.89133 6.36642 8.18749C6.07026 8.48365 5.71867 8.71857 5.33172 8.87885C4.94477 9.03913 4.53005 9.12162 4.11122 9.12162C3.69239 9.12162 3.27766 9.03913 2.89071 8.87885C2.50376 8.71857 2.15217 8.48365 1.85601 8.18749C1.55985 7.89133 1.32493 7.53974 1.16465 7.15279C1.00437 6.76584 0.921875 6.35111 0.921875 5.93228C0.921875 5.40695 1.11916 4.88709 1.3775 4.56542C1.3775 4.86752 1.4975 5.15724 1.71112 5.37085C1.92473 5.58447 2.21445 5.70447 2.51655 5.70447Z" stroke="#818181" stroke-width="0.91124" stroke-linecap="round" stroke-linejoin="round"/>
</svg>
